mtllib arrow.mtl
# vertices
v -24 96 9.941125496954555
v 0 128 -0
v -24 96 -9.941125496950221
v -9.941125496960012 96 24
v -9.941125496952736 96 -24
v 9.941125496957923 96 24
v 24 96 9.941125496954283
v 9.941125496957923 96 -24
v 24 96 -9.941125496954283
v -8 96 -3.3137084989857204
v -8 0 -3.3137084989857177
v -8 0 3.3137084989848518
v -8 96 3.313708498984857
v -3.313708498984852 0 8
v -3.3137084989848575 96 8
v -3.3137084989866707 0 -8
v -3.313708498985716 96 -8
v 3.3137084989866707 96 8
v 3.3137084989847607 0 8
v 8 0 3.313708498984761
v 3.313708498984762 0 -8
v 8 0 -3.313708498984761
v 8 96 -3.313708498984761
v 3.313708498984761 96 -8
v 8 96 3.313708498985605

# texture coordinates
vt -0.5606602 2.5000002
vt -0.25 3.5000002
vt 0.060660183 2.5000002
vt -0.5606601 -1
vt -0.24999991 -0.25000003
vt -0.9999999 -0.56066024
vt -0.5606601 0.5
vt -0.9999999 0.060660183
vt -0.24999991 -0.25
vt 0.5 -0.5606602
vt 0.060660183 -1
vt -0.5606602 -1
vt -1 -0.5606602
vt -1 0.060660183
vt -0.5606602 0.5
vt 0.060660183 0.5
vt 0.5 0.060660183
vt -0.24999997 -0.25000003
vt 0.060660213 -1
vt 0.5 -0.56066024
vt 0.060660213 0.5
vt -0.24999997 -0.25
vt -0.14644662 3
vt -0.14644662 -0
vt -0.35355338 -0
vt -0.35355338 3
vt -0.5 -0
vt -0.5 3
vt 0.14644662 -0
vt 0 -0
vt 0 3
vt 0.14644662 3
vt 0.35355338 3
vt 0.35355338 -0
vt 0.5 -0.35355338
vt 0.35355338 -0.5
vt 0.14644662 -0.5
vt 0 -0.35355338
vt 0 -0.14644662
vt 0.5 -0.14644662

# normals
vn -0.8 0.6 -0
vn -0.5656854249492382 0.6000000000000001 0.5656854249492377
vn -0.5656854249492373 0.6 -0.5656854249492386
vn 0 0.6 0.8
vn 0 -1 0
vn 0 0.6 -0.8
vn 0.5656854249492379 0.6 0.5656854249492379
vn 0.5656854249492379 0.6 -0.5656854249492379
vn 0.8 0.6 -0
vn -1 0 -0
vn -0.7071067811865476 0 0.7071067811865474
vn -0.7071067811865472 0 -0.7071067811865478
vn -0 0 1
vn 0 1 -0
vn 0 0 -1
vn 0.7071067811865475 0 0.7071067811865475
vn 0.7071067811865475 0 -0.7071067811865475
vn 1 0 -0

o entity0_brush0
usemtl __TB_empty
f  1/1/1  2/2/1  3/3/1
usemtl __TB_empty
f  4/4/2  2/5/2  1/6/2
usemtl __TB_empty
f  5/7/3  3/8/3  2/9/3
usemtl __TB_empty
f  2/2/4  4/1/4  6/3/4
usemtl __TB_empty
f  7/10/5  6/11/5  4/12/5  1/13/5  3/14/5  5/15/5  8/16/5  9/17/5
usemtl __TB_empty
f  8/3/6  5/1/6  2/2/6
usemtl __TB_empty
f  2/18/7  6/19/7  7/20/7
usemtl __TB_empty
f  9/17/8  8/21/8  2/22/8
usemtl __TB_empty
f  2/2/9  7/1/9  9/3/9

o entity0_brush1
usemtl __TB_empty
f  10/23/10  11/24/10  12/25/10  13/26/10
usemtl __TB_empty
f  13/26/11  12/25/11  14/27/11  15/28/11
usemtl __TB_empty
f  16/29/12  11/30/12  10/31/12  17/32/12
usemtl __TB_empty
f  18/33/13  15/32/13  14/29/13  19/34/13
usemtl __TB_empty
f  20/35/5  19/36/5  14/37/5  12/38/5  11/39/5  16/29/5  21/34/5  22/40/5
usemtl __TB_empty
f  23/40/14  24/34/14  17/29/14  10/39/14  13/38/14  15/37/14  18/36/14  25/35/14
usemtl __TB_empty
f  21/34/15  16/29/15  17/32/15  24/33/15
usemtl __TB_empty
f  25/26/16  18/28/16  19/27/16  20/25/16
usemtl __TB_empty
f  22/24/17  21/30/17  24/31/17  23/23/17
usemtl __TB_empty
f  25/26/18  20/25/18  22/24/18  23/23/18

